<?xml version="1.0" encoding="UTF-8" standalone="no"?>
<!DOCTYPE svg PUBLIC "-//W3C//DTD SVG 1.1//EN" "http://www.w3.org/Graphics/SVG/1.1/DTD/svg11.dtd">
<!-- Generated by graphviz version 2.40.1 (20161225.0304)
 -->
<!-- Title: G Pages: 1 -->
<svg width="105pt" height="222pt" viewBox="0.00 0.00 105.30 221.60" xmlns="http://www.w3.org/2000/svg" xmlns:xlink="http://www.w3.org/1999/xlink">
<g id="graph0" class="graph" transform="scale(1 1) rotate(0) translate(4 217.6)">
<title>G</title>
<polygon fill="#ffffff" stroke="transparent" points="-4,4 -4,-217.6 101.2952,-217.6 101.2952,4 -4,4"/>
<!-- 2 -->
<g id="node1" class="node">
<title>2</title>
<ellipse fill="none" stroke="#000000" cx="51.2952" cy="-195.6" rx="27" ry="18"/>
<text text-anchor="middle" x="51.2952" y="-191.4" font-family="Times,serif" font-size="14.00" fill="#000000">2</text>
</g>
<!-- 1 -->
<g id="node2" class="node">
<title>1</title>
<ellipse fill="none" stroke="#000000" cx="34.2952" cy="-106.8" rx="27" ry="18"/>
<text text-anchor="middle" x="34.2952" y="-102.6" font-family="Times,serif" font-size="14.00" fill="#000000">1</text>
</g>
<!-- 2&#45;&gt;1 -->
<g id="edge1" class="edge">
<title>2-&gt;1</title>
<path fill="none" stroke="#000000" d="M29.0897,-185.3341C18.9551,-179.3746 7.9683,-170.8077 2.2952,-159.6 -3.0751,-148.9906 2.2184,-137.661 9.9418,-128.2277"/>
<polygon fill="#000000" stroke="#000000" points="12.589,-130.5204 16.8203,-120.8071 7.4553,-125.7616 12.589,-130.5204"/>
<text text-anchor="middle" x="5.7952" y="-147" font-family="Times,serif" font-size="14.00" fill="#000000">4</text>
</g>
<!-- 2&#45;&gt;1 -->
<g id="edge4" class="edge">
<title>2-&gt;1</title>
<path fill="none" stroke="#000000" d="M37.2924,-179.8773C32.8814,-173.9431 28.5692,-166.8615 26.2952,-159.6 23.8015,-151.6372 24.0499,-142.7473 25.4207,-134.5665"/>
<polygon fill="#000000" stroke="#000000" points="28.8587,-135.2303 27.6352,-124.7063 22.0288,-133.6963 28.8587,-135.2303"/>
<text text-anchor="middle" x="36.7952" y="-147" font-family="Times,serif" font-size="14.00" fill="#000000"> 9   </text>
</g>
<!-- 0 -->
<g id="node3" class="node">
<title>0</title>
<ellipse fill="none" stroke="#000000" cx="70.2952" cy="-18" rx="27" ry="18"/>
<text text-anchor="middle" x="70.2952" y="-13.8" font-family="Times,serif" font-size="14.00" fill="#000000">0</text>
</g>
<!-- 2&#45;&gt;0 -->
<g id="edge2" class="edge">
<title>2-&gt;0</title>
<path fill="none" stroke="#000000" d="M62.6508,-179.1157C66.1006,-173.2231 69.4613,-166.3625 71.2952,-159.6 81.6218,-121.5191 78.6071,-75.5309 74.9205,-46.5179"/>
<polygon fill="#000000" stroke="#000000" points="78.3415,-45.7059 73.5011,-36.2814 71.4078,-46.6674 78.3415,-45.7059"/>
<text text-anchor="middle" x="81.7952" y="-102.6" font-family="Times,serif" font-size="14.00" fill="#000000">4</text>
</g>
<!-- 1&#45;&gt;2 -->
<g id="edge3" class="edge">
<title>1-&gt;2</title>
<path fill="none" stroke="#000000" d="M44.2149,-123.822C47.0897,-129.6443 49.8433,-136.3254 51.2952,-142.8 53.0524,-150.6363 53.6068,-159.2928 53.576,-167.2904"/>
<polygon fill="#000000" stroke="#000000" points="50.0775,-167.1915 53.2503,-177.3001 57.0738,-167.4193 50.0775,-167.1915"/>
<text text-anchor="middle" x="60.2952" y="-147" font-family="Times,serif" font-size="14.00" fill="#000000">18</text>
</g>
<!-- 1&#45;&gt;0 -->
<g id="edge5" class="edge">
<title>1-&gt;0</title>
<path fill="none" stroke="#000000" d="M41.4076,-89.256C46.5355,-76.6071 53.5518,-59.3002 59.3855,-44.9105"/>
<polygon fill="#000000" stroke="#000000" points="62.684,-46.09 63.1975,-35.5076 56.1968,-43.46 62.684,-46.09"/>
<text text-anchor="middle" x="62.2952" y="-58.2" font-family="Times,serif" font-size="14.00" fill="#000000">19</text>
</g>
</g>
</svg>