<?xml version="1.0" encoding="UTF-8" standalone="no"?>
<!DOCTYPE svg PUBLIC "-//W3C//DTD SVG 1.1//EN" "http://www.w3.org/Graphics/SVG/1.1/DTD/svg11.dtd">
<!-- Generated by graphviz version 2.40.1 (20161225.0304)
 -->
<!-- Title: G Pages: 1 -->
<svg width="168pt" height="310pt" viewBox="0.00 0.00 168.00 310.40" xmlns="http://www.w3.org/2000/svg" xmlns:xlink="http://www.w3.org/1999/xlink">
<g id="graph0" class="graph" transform="scale(1 1) rotate(0) translate(4 306.4)">
<title>G</title>
<polygon fill="#ffffff" stroke="transparent" points="-4,4 -4,-306.4 164,-306.4 164,4 -4,4"/>
<!-- 5 -->
<g id="node1" class="node">
<title>5</title>
<ellipse fill="none" stroke="#000000" cx="89" cy="-284.4" rx="27" ry="18"/>
<text text-anchor="middle" x="89" y="-280.2" font-family="Times,serif" font-size="14.00" fill="#000000">5</text>
</g>
<!-- 3 -->
<g id="node2" class="node">
<title>3</title>
<ellipse fill="none" stroke="#000000" cx="27" cy="-106.8" rx="27" ry="18"/>
<text text-anchor="middle" x="27" y="-102.6" font-family="Times,serif" font-size="14.00" fill="#000000">3</text>
</g>
<!-- 5&#45;&gt;3 -->
<g id="edge1" class="edge">
<title>5-&gt;3</title>
<path fill="none" stroke="#000000" d="M73.2223,-269.6369C67.272,-263.4829 60.7908,-256.0039 56,-248.4 34.0793,-213.6076 28.3396,-165.3348 27.0474,-135.0973"/>
<polygon fill="#000000" stroke="#000000" points="30.5382,-134.7263 26.7508,-124.8316 23.5411,-134.9285 30.5382,-134.7263"/>
<text text-anchor="middle" x="47" y="-191.4" font-family="Times,serif" font-size="14.00" fill="#000000">23</text>
</g>
<!-- 4 -->
<g id="node3" class="node">
<title>4</title>
<ellipse fill="none" stroke="#000000" cx="92" cy="-195.6" rx="27" ry="18"/>
<text text-anchor="middle" x="92" y="-191.4" font-family="Times,serif" font-size="14.00" fill="#000000">4</text>
</g>
<!-- 5&#45;&gt;4 -->
<g id="edge3" class="edge">
<title>5-&gt;4</title>
<path fill="none" stroke="#000000" d="M73.4611,-269.6435C64.5426,-259.3179 56.0169,-245.0236 61,-231.6 62.8191,-226.6996 65.6374,-222.0193 68.8487,-217.7503"/>
<polygon fill="#000000" stroke="#000000" points="71.5422,-219.9856 75.3489,-210.0982 66.2072,-215.4536 71.5422,-219.9856"/>
<text text-anchor="middle" x="78.5" y="-235.8" font-family="Times,serif" font-size="14.00" fill="#000000">  16    </text>
</g>
<!-- 5&#45;&gt;4 -->
<g id="edge5" class="edge">
<title>5-&gt;4</title>
<path fill="none" stroke="#000000" d="M93.1724,-266.5538C94.33,-260.7937 95.4262,-254.3575 96,-248.4 96.7722,-240.3832 96.5474,-231.6697 95.9175,-223.6753"/>
<polygon fill="#000000" stroke="#000000" points="99.397,-223.295 94.906,-213.6991 92.4327,-224.0011 99.397,-223.295"/>
<text text-anchor="middle" x="107.5" y="-235.8" font-family="Times,serif" font-size="14.00" fill="#000000"> 10 </text>
</g>
<!-- 2 -->
<g id="node5" class="node">
<title>2</title>
<ellipse fill="none" stroke="#000000" cx="133" cy="-18" rx="27" ry="18"/>
<text text-anchor="middle" x="133" y="-13.8" font-family="Times,serif" font-size="14.00" fill="#000000">2</text>
</g>
<!-- 5&#45;&gt;2 -->
<g id="edge7" class="edge">
<title>5-&gt;2</title>
<path fill="none" stroke="#000000" d="M105.6329,-270.1144C111.7011,-264.0263 118.0396,-256.4676 122,-248.4 154.6741,-181.8405 145.8383,-91.0359 138.4457,-45.8758"/>
<polygon fill="#000000" stroke="#000000" points="141.878,-45.1838 136.7177,-35.9306 134.9813,-46.3822 141.878,-45.1838"/>
<text text-anchor="middle" x="152" y="-147" font-family="Times,serif" font-size="14.00" fill="#000000">29</text>
</g>
<!-- 4&#45;&gt;3 -->
<g id="edge2" class="edge">
<title>4-&gt;3</title>
<path fill="none" stroke="#000000" d="M80.078,-179.3127C70.274,-165.919 56.226,-146.7272 45.0447,-131.4519"/>
<polygon fill="#000000" stroke="#000000" points="47.5772,-128.986 38.8464,-122.984 41.9288,-133.1206 47.5772,-128.986"/>
<text text-anchor="middle" x="73" y="-147" font-family="Times,serif" font-size="14.00" fill="#000000">30</text>
</g>
<!-- 0 -->
<g id="node4" class="node">
<title>0</title>
<ellipse fill="none" stroke="#000000" cx="99" cy="-106.8" rx="27" ry="18"/>
<text text-anchor="middle" x="99" y="-102.6" font-family="Times,serif" font-size="14.00" fill="#000000">0</text>
</g>
<!-- 4&#45;&gt;0 -->
<g id="edge4" class="edge">
<title>4-&gt;0</title>
<path fill="none" stroke="#000000" d="M93.4504,-177.2006C94.4141,-164.975 95.698,-148.6887 96.7881,-134.8599"/>
<polygon fill="#000000" stroke="#000000" points="100.2786,-135.1162 97.5754,-124.872 93.3003,-134.566 100.2786,-135.1162"/>
<text text-anchor="middle" x="100.5" y="-147" font-family="Times,serif" font-size="14.00" fill="#000000">3</text>
</g>
<!-- 0&#45;&gt;2 -->
<g id="edge6" class="edge">
<title>0-&gt;2</title>
<path fill="none" stroke="#000000" d="M105.7173,-89.256C110.5603,-76.6071 117.1868,-59.3002 122.6964,-44.9105"/>
<polygon fill="#000000" stroke="#000000" points="125.9895,-46.098 126.2966,-35.5076 119.4523,-43.5949 125.9895,-46.098"/>
<text text-anchor="middle" x="126" y="-58.2" font-family="Times,serif" font-size="14.00" fill="#000000">27</text>
</g>
</g>
</svg>