<?xml version="1.0" encoding="UTF-8" standalone="no"?>
<!DOCTYPE svg PUBLIC "-//W3C//DTD SVG 1.1//EN" "http://www.w3.org/Graphics/SVG/1.1/DTD/svg11.dtd">
<!-- Generated by graphviz version 2.40.1 (20161225.0304)
 -->
<!-- Title: G Pages: 1 -->
<svg width="152pt" height="222pt" viewBox="0.00 0.00 152.34 221.60" xmlns="http://www.w3.org/2000/svg" xmlns:xlink="http://www.w3.org/1999/xlink">
<g id="graph0" class="graph" transform="scale(1 1) rotate(0) translate(4 217.6)">
<title>G</title>
<polygon fill="#ffffff" stroke="transparent" points="-4,4 -4,-217.6 148.3417,-217.6 148.3417,4 -4,4"/>
<!-- 1 -->
<g id="node1" class="node">
<title>1</title>
<ellipse fill="none" stroke="#000000" cx="101.8417" cy="-195.6" rx="27" ry="18"/>
<text text-anchor="middle" x="101.8417" y="-191.4" font-family="Times,serif" font-size="14.00" fill="#000000">1</text>
</g>
<!-- 0 -->
<g id="node2" class="node">
<title>0</title>
<ellipse fill="none" stroke="#000000" cx="108.8417" cy="-18" rx="27" ry="18"/>
<text text-anchor="middle" x="108.8417" y="-13.8" font-family="Times,serif" font-size="14.00" fill="#000000">0</text>
</g>
<!-- 1&#45;&gt;0 -->
<g id="edge1" class="edge">
<title>1-&gt;0</title>
<path fill="none" stroke="#000000" d="M79.4462,-185.3897C44.4633,-167.9033 -17.0006,-130.093 4.8417,-88.8 19.6282,-60.8462 50.9539,-41.8658 75.3818,-30.6499"/>
<polygon fill="#000000" stroke="#000000" points="76.9228,-33.7963 84.6903,-26.591 74.1249,-27.3797 76.9228,-33.7963"/>
<text text-anchor="middle" x="15.3417" y="-102.6" font-family="Times,serif" font-size="14.00" fill="#000000"> 21 </text>
</g>
<!-- 2 -->
<g id="node3" class="node">
<title>2</title>
<ellipse fill="none" stroke="#000000" cx="61.8417" cy="-106.8" rx="27" ry="18"/>
<text text-anchor="middle" x="61.8417" y="-102.6" font-family="Times,serif" font-size="14.00" fill="#000000">2</text>
</g>
<!-- 1&#45;&gt;2 -->
<g id="edge2" class="edge">
<title>1-&gt;2</title>
<path fill="none" stroke="#000000" d="M93.939,-178.056C88.2413,-165.4071 80.4454,-148.1002 73.9636,-133.7105"/>
<polygon fill="#000000" stroke="#000000" points="77.0263,-131.9878 69.728,-124.3076 70.644,-134.8628 77.0263,-131.9878"/>
<text text-anchor="middle" x="91.8417" y="-147" font-family="Times,serif" font-size="14.00" fill="#000000">28</text>
</g>
<!-- 0&#45;&gt;1 -->
<g id="edge4" class="edge">
<title>0-&gt;1</title>
<path fill="none" stroke="#000000" d="M108.1665,-36.0838C107.7834,-46.2793 107.2918,-59.2505 106.8417,-70.8 105.5487,-103.9785 104.0136,-142.1165 102.9887,-167.4105"/>
<polygon fill="#000000" stroke="#000000" points="99.4912,-167.2788 102.5828,-177.4125 106.4855,-167.5626 99.4912,-167.2788"/>
<text text-anchor="middle" x="112.8417" y="-102.6" font-family="Times,serif" font-size="14.00" fill="#000000">26</text>
</g>
<!-- 0&#45;&gt;1 -->
<g id="edge5" class="edge">
<title>0-&gt;1</title>
<path fill="none" stroke="#000000" d="M115.6699,-35.7175C117.637,-41.4708 119.5879,-47.9355 120.8417,-54 130.3508,-99.9943 130.5709,-114.6844 116.8417,-159.6 115.9214,-162.6109 114.8405,-165.7158 113.6877,-168.7811"/>
<polygon fill="#000000" stroke="#000000" points="110.3536,-167.6914 109.869,-178.2751 116.848,-170.3036 110.3536,-167.6914"/>
<text text-anchor="middle" x="135.5917" y="-102.6" font-family="Times,serif" font-size="14.00" fill="#000000"> 25</text>
</g>
<!-- 2&#45;&gt;0 -->
<g id="edge3" class="edge">
<title>2-&gt;0</title>
<path fill="none" stroke="#000000" d="M70.9038,-89.6785C77.731,-76.7795 87.2125,-58.8655 94.9887,-44.1734"/>
<polygon fill="#000000" stroke="#000000" points="98.2229,-45.5447 99.8075,-35.069 92.036,-42.27 98.2229,-45.5447"/>
<text text-anchor="middle" x="95.8417" y="-58.2" font-family="Times,serif" font-size="14.00" fill="#000000">20</text>
</g>
</g>
</svg>