<?xml version="1.0" encoding="UTF-8" standalone="no"?>
<!DOCTYPE svg PUBLIC "-//W3C//DTD SVG 1.1//EN" "http://www.w3.org/Graphics/SVG/1.1/DTD/svg11.dtd">
<!-- Generated by graphviz version 2.40.1 (20161225.0304)
 -->
<!-- Title: G Pages: 1 -->
<svg width="350pt" height="378pt" viewBox="0.00 0.00 349.95 377.67" xmlns="http://www.w3.org/2000/svg" xmlns:xlink="http://www.w3.org/1999/xlink">
<g id="graph0" class="graph" transform="scale(1 1) rotate(0) translate(4 373.6732)">
<title>G</title>
<polygon fill="#ffffff" stroke="transparent" points="-4,4 -4,-373.6732 345.9458,-373.6732 345.9458,4 -4,4"/>
<!-- S -->
<g id="node1" class="node">
<title>S</title>
<ellipse fill="none" stroke="#000000" cx="109.9729" cy="-325.383" rx="44.0814" ry="44.0814"/>
<text text-anchor="middle" x="109.9729" y="-321.183" font-family="Times,serif" font-size="14.00" fill="#000000">Servidor</text>
</g>
<!-- M1 -->
<g id="node5" class="node">
<title>M1</title>
<polygon fill="none" stroke="#000000" points="101.5213,-228.0677 28.4245,-228.0677 28.4245,-154.9709 101.5213,-154.9709 101.5213,-228.0677"/>
<text text-anchor="middle" x="64.9729" y="-187.3193" font-family="Times,serif" font-size="14.00" fill="#000000">Monitor-1</text>
</g>
<!-- S&#45;&gt;M1 -->
<g id="edge1" class="edge">
<title>S-&gt;M1</title>
<path fill="none" stroke="#000000" d="M95.8581,-283.395C91.0413,-269.0662 85.6262,-252.9577 80.6913,-238.2775"/>
<polygon fill="#000000" stroke="#000000" points="83.8687,-236.7453 77.3647,-228.3818 77.2336,-238.9758 83.8687,-236.7453"/>
<text text-anchor="middle" x="95.9729" y="-250.4928" font-family="Times,serif" font-size="14.00" fill="#000000">10</text>
</g>
<!-- M2 -->
<g id="node6" class="node">
<title>M2</title>
<polygon fill="none" stroke="#000000" points="207.5213,-228.0677 134.4245,-228.0677 134.4245,-154.9709 207.5213,-154.9709 207.5213,-228.0677"/>
<text text-anchor="middle" x="170.9729" y="-187.3193" font-family="Times,serif" font-size="14.00" fill="#000000">Monitor-2</text>
</g>
<!-- S&#45;&gt;M2 -->
<g id="edge2" class="edge">
<title>S-&gt;M2</title>
<path fill="none" stroke="#000000" d="M128.4404,-284.8562C135.2356,-269.9443 142.9797,-252.9499 149.9811,-237.5855"/>
<polygon fill="#000000" stroke="#000000" points="153.2676,-238.8138 154.2294,-228.2627 146.8978,-235.9111 153.2676,-238.8138"/>
<text text-anchor="middle" x="149.4729" y="-250.4928" font-family="Times,serif" font-size="14.00" fill="#000000">3</text>
</g>
<!-- C1 -->
<g id="node2" class="node">
<title>C1</title>
<ellipse fill="none" stroke="#000000" cx="50.9729" cy="-50.9729" rx="46.9479" ry="46.9479"/>
<ellipse fill="none" stroke="#000000" cx="50.9729" cy="-50.9729" rx="50.9458" ry="50.9458"/>
<text text-anchor="middle" x="50.9729" y="-46.7729" font-family="Times,serif" font-size="14.00" fill="#000000">Cliente-1</text>
</g>
<!-- C2 -->
<g id="node3" class="node">
<title>C2</title>
<ellipse fill="none" stroke="#000000" cx="170.9729" cy="-50.9729" rx="46.9479" ry="46.9479"/>
<ellipse fill="none" stroke="#000000" cx="170.9729" cy="-50.9729" rx="50.9458" ry="50.9458"/>
<text text-anchor="middle" x="170.9729" y="-46.7729" font-family="Times,serif" font-size="14.00" fill="#000000">Cliente-2</text>
</g>
<!-- C3 -->
<g id="node4" class="node">
<title>C3</title>
<ellipse fill="none" stroke="#000000" cx="290.9729" cy="-50.9729" rx="46.9479" ry="46.9479"/>
<ellipse fill="none" stroke="#000000" cx="290.9729" cy="-50.9729" rx="50.9458" ry="50.9458"/>
<text text-anchor="middle" x="290.9729" y="-46.7729" font-family="Times,serif" font-size="14.00" fill="#000000">Cliente-3</text>
</g>
<!-- M1&#45;&gt;C1 -->
<g id="edge3" class="edge">
<title>M1-&gt;C1</title>
<path fill="none" stroke="#000000" d="M61.3311,-154.9593C60.0211,-141.8085 58.5055,-126.5934 57.0448,-111.9293"/>
<polygon fill="#000000" stroke="#000000" points="60.5196,-111.5011 56.0455,-101.8973 53.5541,-112.195 60.5196,-111.5011"/>
<text text-anchor="middle" x="66.9729" y="-124.1458" font-family="Times,serif" font-size="14.00" fill="#000000">14</text>
</g>
<!-- M2&#45;&gt;C2 -->
<g id="edge4" class="edge">
<title>M2-&gt;C2</title>
<path fill="none" stroke="#000000" d="M170.9729,-154.9593C170.9729,-142.0004 170.9729,-127.037 170.9729,-112.5716"/>
<polygon fill="#000000" stroke="#000000" points="174.473,-112.1622 170.9729,-102.1622 167.473,-112.1623 174.473,-112.1622"/>
<text text-anchor="middle" x="174.4729" y="-124.1458" font-family="Times,serif" font-size="14.00" fill="#000000">4</text>
</g>
<!-- M2&#45;&gt;C3 -->
<g id="edge5" class="edge">
<title>M2-&gt;C3</title>
<path fill="none" stroke="#000000" d="M202.1882,-154.9593C217.1361,-137.452 235.2077,-116.2862 251.1346,-97.6323"/>
<polygon fill="#000000" stroke="#000000" points="253.9822,-99.6873 257.8138,-89.8095 248.6586,-95.142 253.9822,-99.6873"/>
<text text-anchor="middle" x="237.9729" y="-124.1458" font-family="Times,serif" font-size="14.00" fill="#000000">23</text>
</g>
</g>
</svg>